<svg width="44" height="40" viewBox="0 0 44 40" fill="none" xmlns="http://www.w3.org/2000/svg">
<path fill-rule="evenodd" clip-rule="evenodd" d="M26.2591 0H17.1018C15.6628 0 14.4855 1.01903 14.4855 2.26452V2.9248H5.72794C4.48366 2.9248 3.47495 3.79785 3.47495 4.8748V6.3732C2.12799 7.0475 1.22175 8.30793 1.22175 9.75156V20.485C0.539069 20.55 0.0957031 20.9835 0.0957031 21.6088V37.8693C0.0957031 38.5487 0.618977 39.0016 1.40389 39.0016H9.25301V38.9978H34.1095V39.0016H41.9585C42.7435 39.0016 43.2668 38.5487 43.2668 37.8693V21.6088C43.2668 20.9295 42.7435 20.4766 41.9585 20.4766H41.7755V9.75156C41.7755 8.30809 40.8695 7.04778 39.5228 6.37343V4.8748C39.5228 3.79785 38.5141 2.9248 37.2698 2.9248H28.8755V2.26452C28.8755 1.01903 27.6982 0 26.2591 0Z" fill="#F9D448"/>
<path d="M3.4751 4.87578C3.4751 3.79883 4.4838 2.92578 5.72809 2.92578H37.2699C38.5143 2.92578 39.5229 3.79883 39.5229 4.87578V15.6008C39.5229 16.6777 38.5143 17.5508 37.2699 17.5508H5.7281C4.4838 17.5508 3.4751 16.6777 3.4751 15.6008V4.87578Z" fill="#F9D448"/>
<path d="M17.1017 6.10352e-05H26.259C27.698 6.10352e-05 28.8754 1.01909 28.8754 2.26458V11.3226C28.8754 12.5681 27.698 13.5871 26.259 13.5871H17.1017C15.6627 13.5871 14.4854 12.5681 14.4854 11.3226V2.26458C14.4854 1.01909 15.6627 6.10352e-05 17.1017 6.10352e-05Z" fill="#F9D448"/>
<path d="M1.22168 9.75156C1.22168 7.59765 3.23908 5.85156 5.72766 5.85156H37.2695C39.758 5.85156 41.7755 7.59765 41.7755 9.75156V22.4266H1.22168V9.75156Z" fill="#AA572A"/>
<path d="M37.2699 9.75H5.72803V21.45H37.2699V9.75Z" fill="#743611"/>
<path d="M38.3964 21.4499H5.72803V36.0749H38.3964V21.4499Z" fill="#AA572A"/>
<path d="M38.0333 34.4727H5.32861V39.0017H38.0333V34.4727Z" fill="#F9D448"/>
<path d="M17.1017 16.3516H26.259C27.698 16.3516 28.8754 17.3706 28.8754 18.6161V27.6741C28.8754 28.9196 27.698 29.9387 26.259 29.9387H17.1017C15.6627 29.9387 14.4854 28.9196 14.4854 27.6741V18.6161C14.4854 17.3706 15.6627 16.3516 17.1017 16.3516Z" fill="#F9D448"/>
<path fill-rule="evenodd" clip-rule="evenodd" d="M24.9506 21.4439C24.9506 19.8588 23.5116 18.6133 21.6801 18.6133C19.8487 18.6133 18.4097 19.8588 18.4097 21.4439C18.4097 22.3854 18.9172 23.207 19.7132 23.7191L18.6719 26.0848V26.4244C18.6719 27.1038 19.1952 27.5567 19.9802 27.5567H23.1198H23.5123C24.1663 27.4435 24.6896 26.7641 24.428 26.198L23.6469 23.7192C24.4429 23.2071 24.9506 22.3854 24.9506 21.4439Z" fill="#E3A23C"/>
<path d="M1.40389 20.4766H7.94482C8.72973 20.4766 9.25301 20.9295 9.25301 21.6088V39.0016H1.40389C0.618977 39.0016 0.0957031 38.5487 0.0957031 37.8693V21.6088C0.0957031 20.9295 0.618977 20.4766 1.40389 20.4766Z" fill="#F9D448"/>
<path d="M35.4175 20.4766H41.9584C42.7434 20.4766 43.2667 20.9295 43.2667 21.6088V37.8693C43.2667 38.5487 42.7434 39.0016 41.9584 39.0016H34.1094V21.6088C34.1094 20.9295 34.6326 20.4766 35.4175 20.4766Z" fill="#F9D448"/>
</svg>
