<svg width="491" height="20" viewBox="0 0 491 20" fill="none" xmlns="http://www.w3.org/2000/svg">
<path d="M228.911 15C228.804 15 228.714 14.968 228.639 14.904C228.575 14.8293 228.543 14.7387 228.543 14.632V5.672L225.887 7.72C225.802 7.784 225.711 7.81067 225.615 7.8C225.519 7.78933 225.439 7.74133 225.375 7.656L224.959 7.128C224.895 7.032 224.868 6.936 224.879 6.84C224.9 6.744 224.954 6.664 225.039 6.6L228.527 3.912C228.602 3.85867 228.671 3.82667 228.735 3.816C228.799 3.80533 228.868 3.8 228.943 3.8H229.759C229.866 3.8 229.951 3.83733 230.015 3.912C230.079 3.976 230.111 4.06133 230.111 4.168V14.632C230.111 14.7387 230.079 14.8293 230.015 14.904C229.951 14.968 229.866 15 229.759 15H228.911ZM236.411 15.16C235.675 15.16 235.051 15.048 234.539 14.824C234.038 14.5893 233.627 14.2693 233.307 13.864C232.987 13.4587 232.752 12.9947 232.603 12.472C232.464 11.9493 232.384 11.3947 232.363 10.808C232.352 10.52 232.342 10.216 232.331 9.896C232.331 9.576 232.331 9.256 232.331 8.936C232.342 8.60533 232.352 8.29067 232.363 7.992C232.374 7.40533 232.454 6.85067 232.603 6.328C232.763 5.79467 232.998 5.33067 233.307 4.936C233.627 4.53067 234.043 4.216 234.555 3.992C235.067 3.75733 235.686 3.64 236.411 3.64C237.147 3.64 237.766 3.75733 238.267 3.992C238.779 4.216 239.195 4.53067 239.515 4.936C239.835 5.33067 240.07 5.79467 240.219 6.328C240.379 6.85067 240.464 7.40533 240.475 7.992C240.486 8.29067 240.491 8.60533 240.491 8.936C240.502 9.256 240.502 9.576 240.491 9.896C240.491 10.216 240.486 10.52 240.475 10.808C240.464 11.3947 240.379 11.9493 240.219 12.472C240.07 12.9947 239.835 13.4587 239.515 13.864C239.206 14.2693 238.795 14.5893 238.283 14.824C237.782 15.048 237.158 15.16 236.411 15.16ZM236.411 13.8C237.243 13.8 237.856 13.528 238.251 12.984C238.656 12.4293 238.864 11.6773 238.875 10.728C238.896 10.4187 238.907 10.12 238.907 9.832C238.907 9.53333 238.907 9.24 238.907 8.952C238.907 8.65333 238.896 8.36 238.875 8.072C238.864 7.144 238.656 6.40267 238.251 5.848C237.856 5.28267 237.243 5 236.411 5C235.59 5 234.976 5.28267 234.571 5.848C234.176 6.40267 233.968 7.144 233.947 8.072C233.947 8.36 233.942 8.65333 233.931 8.952C233.931 9.24 233.931 9.53333 233.931 9.832C233.942 10.12 233.947 10.4187 233.947 10.728C233.968 11.6773 234.182 12.4293 234.587 12.984C234.992 13.528 235.6 13.8 236.411 13.8ZM241.919 16.344C241.833 16.344 241.759 16.312 241.695 16.248C241.631 16.184 241.599 16.1093 241.599 16.024C241.599 15.9707 241.615 15.9067 241.647 15.832L247.119 2.712C247.151 2.648 247.193 2.584 247.247 2.52C247.311 2.456 247.407 2.424 247.535 2.424H248.159C248.244 2.424 248.319 2.456 248.383 2.52C248.447 2.584 248.479 2.65867 248.479 2.744C248.479 2.78667 248.468 2.85067 248.447 2.936L242.959 16.056C242.937 16.1093 242.889 16.168 242.815 16.232C242.751 16.3067 242.66 16.344 242.543 16.344H241.919ZM253.239 15C253.133 15 253.042 14.968 252.967 14.904C252.903 14.8293 252.871 14.7387 252.871 14.632V5.672L250.215 7.72C250.13 7.784 250.039 7.81067 249.943 7.8C249.847 7.78933 249.767 7.74133 249.703 7.656L249.287 7.128C249.223 7.032 249.197 6.936 249.207 6.84C249.229 6.744 249.282 6.664 249.367 6.6L252.855 3.912C252.93 3.85867 252.999 3.82667 253.063 3.816C253.127 3.80533 253.197 3.8 253.271 3.8H254.087C254.194 3.8 254.279 3.83733 254.343 3.912C254.407 3.976 254.439 4.06133 254.439 4.168V14.632C254.439 14.7387 254.407 14.8293 254.343 14.904C254.279 14.968 254.194 15 254.087 15H253.239ZM260.739 15.16C260.003 15.16 259.379 15.048 258.867 14.824C258.366 14.5893 257.955 14.2693 257.635 13.864C257.315 13.4587 257.08 12.9947 256.931 12.472C256.792 11.9493 256.712 11.3947 256.691 10.808C256.68 10.52 256.67 10.216 256.659 9.896C256.659 9.576 256.659 9.256 256.659 8.936C256.67 8.60533 256.68 8.29067 256.691 7.992C256.702 7.40533 256.782 6.85067 256.931 6.328C257.091 5.79467 257.326 5.33067 257.635 4.936C257.955 4.53067 258.371 4.216 258.883 3.992C259.395 3.75733 260.014 3.64 260.739 3.64C261.475 3.64 262.094 3.75733 262.595 3.992C263.107 4.216 263.523 4.53067 263.843 4.936C264.163 5.33067 264.398 5.79467 264.547 6.328C264.707 6.85067 264.792 7.40533 264.803 7.992C264.814 8.29067 264.819 8.60533 264.819 8.936C264.83 9.256 264.83 9.576 264.819 9.896C264.819 10.216 264.814 10.52 264.803 10.808C264.792 11.3947 264.707 11.9493 264.547 12.472C264.398 12.9947 264.163 13.4587 263.843 13.864C263.534 14.2693 263.123 14.5893 262.611 14.824C262.11 15.048 261.486 15.16 260.739 15.16ZM260.739 13.8C261.571 13.8 262.184 13.528 262.579 12.984C262.984 12.4293 263.192 11.6773 263.203 10.728C263.224 10.4187 263.235 10.12 263.235 9.832C263.235 9.53333 263.235 9.24 263.235 8.952C263.235 8.65333 263.224 8.36 263.203 8.072C263.192 7.144 262.984 6.40267 262.579 5.848C262.184 5.28267 261.571 5 260.739 5C259.918 5 259.304 5.28267 258.899 5.848C258.504 6.40267 258.296 7.144 258.275 8.072C258.275 8.36 258.27 8.65333 258.259 8.952C258.259 9.24 258.259 9.53333 258.259 9.832C258.27 10.12 258.275 10.4187 258.275 10.728C258.296 11.6773 258.51 12.4293 258.915 12.984C259.32 13.528 259.928 13.8 260.739 13.8Z" fill="white"/>
</svg>
