<svg width="26" height="25" viewBox="0 0 26 25" fill="none" xmlns="http://www.w3.org/2000/svg">
<path d="M13.0302 0.0740967C16.214 0.0740967 19.2675 1.33888 21.5188 3.59022C23.7702 5.84155 25.035 8.89502 25.035 12.0789C25.035 15.2628 23.7702 18.3162 21.5188 20.5676C19.2675 22.8189 16.214 24.0837 13.0302 24.0837C9.84631 24.0837 6.79285 22.8189 4.54151 20.5676C2.29018 18.3162 1.02539 15.2628 1.02539 12.0789C1.02539 8.89502 2.29018 5.84155 4.54151 3.59022C6.79285 1.33888 9.84631 0.0740967 13.0302 0.0740967ZM13.0302 1.99486C10.3557 1.99486 7.79082 3.05728 5.8997 4.9484C4.00858 6.83953 2.94616 9.40444 2.94616 12.0789C2.94616 14.7533 4.00858 17.3182 5.8997 19.2094C7.79082 21.1005 10.3557 22.1629 13.0302 22.1629C15.7046 22.1629 18.2695 21.1005 20.1607 19.2094C22.0518 17.3182 23.1142 14.7533 23.1142 12.0789C23.1142 9.40444 22.0518 6.83953 20.1607 4.9484C18.2695 3.05728 15.7046 1.99486 13.0302 1.99486Z" fill="#BBEA54"/>
<path d="M23.1005 9.8122C23.0339 9.62413 22.9119 9.45841 22.749 9.33495C22.5862 9.21149 22.3895 9.13553 22.1825 9.11621L16.337 8.60066L14.015 3.44514C13.9344 3.25898 13.7977 3.09985 13.6222 2.98789C13.4468 2.87592 13.2405 2.81616 13.0295 2.81616C12.8185 2.81616 12.6122 2.87592 12.4368 2.98789C12.2614 3.09985 12.1247 3.25898 12.044 3.44514L9.73552 8.60066L3.87652 9.11621C3.6691 9.13743 3.47256 9.21556 3.31064 9.34114C3.14873 9.46672 3.02838 9.63438 2.96412 9.82386C2.89987 10.0133 2.89447 10.2165 2.94858 10.4089C3.00269 10.6012 3.11398 10.7745 3.26902 10.9078L7.62952 14.6584L6.27952 20.1361C6.23291 20.334 6.24767 20.5405 6.32199 20.7305C6.39631 20.9205 6.52697 21.0857 6.69802 21.2059C6.88291 21.3325 7.10497 21.4002 7.33252 21.3992C7.5285 21.3979 7.72019 21.3443 7.88602 21.2446L13.0295 18.3188L18.065 21.193C18.2452 21.3024 18.4556 21.3577 18.669 21.3517C18.8825 21.3456 19.0891 21.2786 19.2622 21.1592C19.4353 21.0398 19.5668 20.8735 19.6398 20.6819C19.7128 20.4903 19.7238 20.2822 19.6715 20.0846L18.4295 14.6584L22.844 10.9593C23.0038 10.8156 23.1139 10.6289 23.1598 10.424C23.2056 10.219 23.1849 10.0056 23.1005 9.8122Z" fill="#FFCA5D"/>
</svg>
