<svg width="19" height="16" viewBox="0 0 19 16" fill="none" xmlns="http://www.w3.org/2000/svg">
<g clip-path="url(#clip0_3460_743)">
<path d="M18.0669 6.04591C18.0094 5.88343 17.904 5.74027 17.7633 5.63362C17.6226 5.52696 17.4527 5.46135 17.2739 5.44465L12.2241 4.99928L10.2182 0.545559C10.1485 0.384739 10.0304 0.24727 9.87886 0.150547C9.72731 0.0538249 9.54912 0.00219727 9.36683 0.00219727C9.18454 0.00219727 9.00634 0.0538249 8.8548 0.150547C8.70325 0.24727 8.58516 0.384739 8.51548 0.545559L6.52122 4.99928L1.45977 5.44465C1.28059 5.46299 1.1108 5.53048 0.970928 5.63896C0.831054 5.74745 0.727083 5.89229 0.671578 6.05597C0.616072 6.21966 0.611408 6.39519 0.658149 6.56136C0.704891 6.72752 0.801037 6.87721 0.93497 6.99232L4.7019 10.2324L3.53567 14.9645C3.4954 15.1354 3.50815 15.3138 3.57235 15.4779C3.63656 15.6421 3.74944 15.7848 3.8972 15.8886C4.05692 15.998 4.24875 16.0565 4.44533 16.0556C4.61463 16.0545 4.78023 16.0082 4.92348 15.922L9.36683 13.3945L13.7169 15.8775C13.8725 15.972 14.0543 16.0198 14.2387 16.0146C14.4231 16.0094 14.6016 15.9514 14.7511 15.8483C14.9006 15.7451 15.0142 15.6015 15.0773 15.436C15.1403 15.2705 15.1499 15.0907 15.1047 14.9199L14.0318 10.2324L17.8453 7.03686C17.9834 6.91275 18.0785 6.75143 18.1181 6.5744C18.1577 6.39736 18.1398 6.21301 18.0669 6.04591Z" fill="#ACADEA"/>
</g>
<defs>
<clipPath id="clip0_3460_743">
<rect width="17.4935" height="16" fill="white" transform="translate(0.620117)"/>
</clipPath>
</defs>
</svg>
