<svg width="32" height="32" viewBox="0 0 32 32" fill="none" xmlns="http://www.w3.org/2000/svg">
  <path fill-rule="evenodd" clip-rule="evenodd" d="M16.5917 9.85997C16.4712 9.74026 16.2767 9.74026 16.1562 9.85997L12.1554 13.8314L7.9729 18.0242C7.92272 18.0774 7.86198 18.1195 7.79456 18.148C7.72716 18.1762 7.65457 18.1903 7.58144 18.1889C7.5084 18.1897 7.436 18.1754 7.36867 18.1471C7.30136 18.1187 7.24055 18.0769 7.18998 18.0242C7.12492 17.9587 7.0774 17.879 7.05053 17.7924C7.04236 17.766 7.03609 17.7391 7.03181 17.7117C7.02777 17.6858 7.02552 17.6594 7.02515 17.6327C7.03123 17.4866 7.08975 17.3477 7.18998 17.2413L11.5682 12.8734L15.9361 8.49518C16.0536 8.38515 16.2078 8.32265 16.3688 8.32001C16.5297 8.32265 16.6943 8.38515 16.8118 8.49518L21.1797 12.8734L25.5579 17.2413C25.6581 17.3477 25.7167 17.4866 25.7227 17.6327C25.722 17.6874 25.7133 17.7411 25.6974 17.7924C25.6705 17.879 25.623 17.9587 25.5579 18.0242C25.5073 18.0769 25.4465 18.1187 25.3792 18.1471C25.3524 18.1584 25.3247 18.1674 25.2965 18.1742C25.254 18.1844 25.2104 18.1895 25.1664 18.1889C25.0933 18.1903 25.0207 18.1762 24.9533 18.148C24.911 18.1301 24.8712 18.1068 24.8351 18.0788C24.8226 18.0691 24.8106 18.0588 24.799 18.048C24.7907 18.0403 24.7827 18.0324 24.775 18.0242L20.5925 13.8314L16.5917 9.85997ZM22.6432 17.4051C22.8343 17.598 22.9415 17.8586 22.9415 18.1301V22.1153C22.9388 22.6992 22.7057 23.2583 22.2928 23.6711C21.8799 24.084 21.3208 24.3171 20.7369 24.3199H19.0681C18.7836 24.3199 18.553 24.0893 18.553 23.8048V21.0336C18.5544 20.7451 18.4985 20.4592 18.3887 20.1923C18.279 19.9255 18.1174 19.683 17.9133 19.479C17.7093 19.2749 17.4669 19.1135 17.2 19.0037C16.9332 18.8939 16.6473 18.8381 16.3587 18.8393C15.7842 18.8481 15.2349 19.0766 14.8238 19.478C14.4156 19.8931 14.1863 20.4515 14.1851 21.0336V23.8048C14.1851 24.0893 13.9545 24.3199 13.67 24.3199H11.9908C11.698 24.3229 11.4076 24.2669 11.1368 24.1555C10.8661 24.044 10.6205 23.8791 10.4147 23.6709C10.0018 23.2582 9.76855 22.6991 9.76567 22.1153V18.1329C9.76567 17.8597 9.87421 17.5977 10.0674 17.4045L13.0622 14.4097L16.1409 11.331C16.2613 11.2106 16.4565 11.2103 16.5773 11.3303L19.6759 14.4097L22.6432 17.4051Z" fill="#808080"/>
</svg>