<svg width="198" height="78" viewBox="0 0 198 78" fill="none" xmlns="http://www.w3.org/2000/svg">
<path d="M100.713 48.323H94.6217V64.7999H82.8113V14.7999C82.8113 13.6984 83.7191 12.8034 84.8387 12.8034H100.715C111.336 12.8034 119.285 20.5669 119.285 30.5999C119.283 40.6329 111.334 48.323 100.713 48.323ZM100.564 23.7888H94.6217V37.411H100.564C104.798 37.411 107.845 34.4093 107.845 30.5999C107.845 26.7193 104.798 23.7888 100.564 23.7888Z" fill="white"/>
<path d="M119.648 46.4917C119.648 35.7266 128.486 27.3757 139.184 27.3757C149.882 27.3757 158.72 35.7243 158.72 46.4917C158.72 57.2568 149.88 65.6054 139.184 65.6054C128.489 65.6054 119.648 57.2568 119.648 46.4917ZM147.431 46.4917C147.431 41.2916 143.865 37.7025 139.184 37.7025C134.506 37.7025 130.94 41.2916 130.94 46.4917C130.94 51.6918 134.506 55.2786 139.184 55.2786C143.865 55.2809 147.431 51.6918 147.431 46.4917Z" fill="white"/>
<path d="M183.156 17.7832C183.156 13.9761 186.349 10.901 190.139 10.901C194.075 10.901 197.196 13.9761 197.196 17.7832C197.196 21.5927 194.075 24.6677 190.139 24.6677C186.349 24.6677 183.156 21.5927 183.156 17.7832ZM186.047 28.1834H194.305C195.122 28.1834 195.786 28.8375 195.786 29.643V64.8022H184.569V29.643C184.566 28.8375 185.227 28.1834 186.047 28.1834Z" fill="white"/>
<path d="M164.884 16.5991V64.8023H176.101V15.057C176.101 13.7834 174.907 12.8356 173.643 13.1064L166.476 14.6485C165.547 14.8459 164.884 15.6605 164.884 16.5991Z" fill="white"/>
<path d="M69.1084 18.0265C69.1038 17.976 69.0991 17.9301 69.0921 17.8796C68.6964 14.1597 65.8893 11.0708 62.1022 10.3227L11.2805 0.301136C5.86179 -0.76826 0.803833 3.31885 0.803833 8.7691V68.5497C0.803833 73.9999 5.86179 78.0871 11.2805 77.0177L62.1022 66.9961C65.8893 66.248 68.6941 63.1591 69.0921 59.4392C69.0991 59.3887 69.1061 59.3428 69.1084 59.2923C69.1317 59.0399 69.141 58.7852 69.141 58.5281V18.7907C69.1433 18.5336 69.1317 18.2789 69.1084 18.0265ZM21.3057 51.8341V25.487C21.3057 25.3424 21.3103 25.1979 21.322 25.0556C21.5827 21.7051 24.8577 19.3231 28.2327 20.1561L44.4191 24.1468C46.9004 24.7573 48.6415 26.9557 48.6415 29.4777V47.8456C48.6415 50.3677 46.9004 52.5661 44.4191 53.1766L28.2327 57.1673C24.86 57.998 21.585 55.616 21.322 52.2678C21.3127 52.1255 21.3057 51.9787 21.3057 51.8341Z" fill="white"/>
<path d="M69.1432 18.6576V58.6659C69.1432 58.8793 69.1316 59.0904 69.1107 59.297C69.106 59.3474 69.1014 59.3933 69.0944 59.4438C68.6707 62.7208 65.5866 65.1121 62.1696 64.6302L28.4375 59.8775C24.5131 59.3268 21.557 56.1255 21.3242 52.2679C21.5849 55.6183 24.8599 57.9981 28.235 57.1673L44.4214 53.1766C46.9027 52.5639 48.6437 50.3654 48.6437 47.8457V29.4778C48.6437 26.9558 46.9027 24.7573 44.4214 24.1469L28.235 20.1561C24.8622 19.3231 21.5872 21.7075 21.3242 25.0556C21.5547 21.198 24.5108 17.9967 28.4375 17.4459L62.1696 12.6933C65.5866 12.2114 68.6684 14.6026 69.0944 17.8797C69.1014 17.9301 69.1083 17.976 69.1107 18.0265C69.1316 18.2331 69.1432 18.4442 69.1432 18.6576Z" fill="#FF675F"/>
</svg>
