<svg width="300" height="246" viewBox="0 0 300 246" fill="none" xmlns="http://www.w3.org/2000/svg">
<path d="M111.08 57.9112V69.2646C111.08 76.5685 123.08 76.578 123.08 69.2646V57.9112C123.08 50.6072 111.08 50.5978 111.08 57.9112Z" fill="#0000C8"/>
<path d="M235.98 57.9112V69.2646C235.98 76.5685 247.98 76.578 247.98 69.2646V57.9112C247.98 50.6072 235.98 50.5978 235.98 57.9112Z" fill="#0000C8"/>
<path d="M210.69 101.504C203.06 110.294 192.71 112.664 180.81 113.044C172.68 113.304 163.64 113.124 156.21 109.384C152.41 107.474 149.97 104.734 147.18 101.504C142.13 95.6435 133.67 104.164 138.69 109.994C149.59 122.634 164.5 125.564 180.81 125.054C195.38 124.594 209.35 121.304 219.17 109.994C224.21 104.184 215.76 95.6635 210.68 101.504H210.69Z" fill="#0000C8"/>
<path d="M12.08 136.794V63.5235C12.08 53.3335 10.74 41.7035 15.08 32.2135C21.12 19.0135 34 12.2935 48.08 12.2635C100.18 12.1735 152.27 12.2635 204.37 12.2635C220.6 12.2635 236.85 12.0135 253.07 12.2635C272.29 12.5635 286.97 27.9535 287.08 46.9935C287.14 58.2235 287.08 69.4535 287.08 80.6835V123.534C287.08 126.334 287.12 129.133 287.08 131.943C286.92 142.443 282.26 152.404 273.89 158.894C264.56 166.114 254.03 165.943 243.03 165.943H156.68C149.28 165.943 141.38 165.154 134.01 165.943C129.36 166.443 128.13 170.163 126.24 173.723C123.37 179.113 120.51 184.504 117.65 189.894C110.7 203.004 103.75 216.113 96.81 229.223C95.48 231.733 94.15 234.243 92.82 236.753H103.18C93.56 218.693 84.03 200.594 74.44 182.524C71.66 177.294 68.4 166.294 61.4 165.943C50.68 165.423 39.28 167.373 28.67 165.533C10.61 162.413 12.01 140.904 12 126.773C12 119.053 0 119.043 0 126.773C0 144.693 0.159998 167.813 19.92 175.503C27.23 178.354 35.11 177.934 42.81 177.934H62L56.82 174.964C59.1 178.054 60.64 182.083 62.43 185.473C66.55 193.233 70.67 200.993 74.78 208.764C80.79 220.114 86.78 231.474 92.81 242.804C94.89 246.704 101.1 246.714 103.17 242.804C109.17 231.474 115.17 220.154 121.17 208.824C125.29 201.044 129.41 193.274 133.55 185.494C135.35 182.104 136.89 178.064 139.17 174.964L133.99 177.934C173.67 177.934 213.4 178.504 253.08 177.934C273.5 177.644 291.78 164.173 297.38 144.373C299.97 135.233 299.08 125.044 299.08 115.633C299.08 92.5935 299.39 69.5335 299.08 46.5035C298.82 27.3235 287.32 10.1735 269.32 3.2435C262.02 0.433501 254.59 0.263505 246.95 0.263505H183.45C137.91 0.263505 92.37 0.00350478 46.83 0.263505C31.22 0.353505 16.93 7.5835 8 20.4635C0.85 30.7635 0.0700073 42.3235 0.0700073 54.3135V136.784C0.0700073 144.504 12.07 144.514 12.07 136.784L12.08 136.794Z" fill="#0000C8"/>
</svg>
