<svg width="32" height="32" viewBox="0 0 32 32" fill="none" xmlns="http://www.w3.org/2000/svg">
<path fill-rule="evenodd" clip-rule="evenodd" d="M14.0529 8.01596C13.4378 7.90593 12.8728 8.37881 12.8728 9.00368H10.0653C9.49946 9.00368 9.04071 9.46242 9.04071 10.0283V13.9526C9.09156 13.7275 9.20526 13.5214 9.3686 13.3584C9.54712 13.1921 9.77249 13.0848 10.0141 13.051C9.85424 12.9097 9.72598 12.7363 9.63769 12.5421C9.54941 12.3479 9.50311 12.1372 9.5018 11.9239C9.5011 11.6756 9.56262 11.4311 9.68076 11.2127C9.79889 10.9944 9.96986 10.8091 10.1781 10.6738V10.3255C10.1781 10.2123 10.2698 10.1205 10.383 10.1205H12.8728V15.2437V22.9182C12.6865 22.9054 12.5082 22.8377 12.3605 22.7235C12.1344 22.5244 11.9947 22.2451 11.9712 21.9448C11.9663 21.9005 11.9663 21.8558 11.9712 21.8116H10.3317C10.1678 22.1906 10.0141 22.5697 9.86045 22.9488L12.8626 22.9489V22.9751C12.8626 23.6131 13.4393 24.0959 14.0674 23.9837L19.0164 23.0997C19.505 23.0125 19.8608 22.5875 19.8608 22.0911V9.91251C19.8608 9.41623 19.5051 8.99128 19.0166 8.90389L14.0529 8.01596ZM14.7137 15.9863C14.7137 16.4063 14.479 16.7468 14.1894 16.7468C13.8998 16.7468 13.6651 16.4063 13.6651 15.9863C13.6651 15.5663 13.8998 15.2259 14.1894 15.2259C14.479 15.2259 14.7137 15.5663 14.7137 15.9863ZM11.0182 13.0919C11.2427 13.098 11.464 13.0369 11.6536 12.9164C11.8431 12.7959 11.9924 12.6214 12.0821 12.4155C12.1718 12.2095 12.198 11.9815 12.1572 11.7606C12.1164 11.5397 12.0105 11.336 11.8532 11.1757C11.6958 11.0154 11.4941 10.9057 11.274 10.8609C11.0539 10.816 10.8254 10.8379 10.6178 10.9238C10.4102 11.0097 10.2331 11.1557 10.1091 11.343C9.98505 11.5303 9.91984 11.7504 9.9218 11.9751C9.92175 12.2678 10.0366 12.5488 10.2416 12.7576C10.4467 12.9665 10.7255 13.0865 11.0182 13.0919ZM9.38915 23.1128L10.506 20.4385C10.5362 20.3488 10.5568 20.256 10.5675 20.1619C10.6352 19.5245 10.6512 18.9922 10.6392 18.3176L10.6392 18.296C10.6389 18.1019 10.6389 18.0958 10.8544 18.1024C10.9042 18.0949 10.9551 18.1052 10.9982 18.1314C11.0413 18.1576 11.0738 18.1981 11.09 18.2458L11.8995 19.6188C11.9398 19.6726 11.9646 19.7364 11.9712 19.8033C12.0122 20.0389 12.0543 20.2746 12.0964 20.5103C12.1807 20.9816 12.2649 21.4529 12.3401 21.9243C12.3566 22.1304 12.4477 22.3235 12.5962 22.4673C12.6723 22.5282 12.7654 22.564 12.8626 22.5698V18.8196C12.7456 18.6376 12.6368 18.4432 12.5285 18.2495C12.466 18.1379 12.4037 18.0266 12.3401 17.918C12.2998 17.8572 12.2784 17.7859 12.2786 17.713V16.8011C12.2786 16.7089 12.2786 16.6679 12.1659 16.6782H11.7868C11.6686 16.684 11.5515 16.6538 11.4508 16.5916C11.3502 16.5294 11.2708 16.4381 11.2232 16.3298L10.6085 15.1719C10.6085 15.1719 10.4855 14.926 10.547 14.9773C10.581 15.0056 10.5993 15.0308 10.6141 15.0511C10.6261 15.0676 10.6357 15.0808 10.6494 15.09L11.4691 16.1146C11.5195 16.1811 11.5846 16.2351 11.6592 16.2725C11.7338 16.3098 11.8161 16.3294 11.8995 16.3298H12.8626V15.2847H12.2171C12.1966 15.2954 12.1737 15.3011 12.1505 15.3011C12.1273 15.3011 12.1045 15.2954 12.0839 15.2847C12.0839 15.2847 10.9612 14.1891 11.3462 14.4137C11.4478 14.473 11.5921 14.5879 11.5921 14.5879C11.756 14.7109 11.92 14.8338 12.0737 14.967C12.1204 14.9813 12.1704 14.9813 12.2171 14.967V14.8953V14.1678C12.2018 13.9875 12.1199 13.8193 11.9873 13.6961C11.8546 13.573 11.6809 13.5037 11.4999 13.5018H10.1576C10.0492 13.499 9.94136 13.5183 9.84063 13.5585C9.73991 13.5987 9.64842 13.6589 9.57173 13.7356C9.49504 13.8123 9.43477 13.9038 9.39457 14.0045C9.35437 14.1052 9.3351 14.2131 9.33792 14.3215C9.33792 16.1761 9.33792 18.0307 9.26619 19.8852C9.26398 20.0081 9.23969 20.1296 9.19447 20.2439L8.16984 22.662C8.12893 22.7921 8.12893 22.9315 8.16984 23.0616C8.19922 23.1938 8.26945 23.3135 8.37059 23.4036C8.47173 23.4937 8.59865 23.5497 8.73338 23.5637C8.87874 23.5806 9.02532 23.5443 9.14591 23.4614C9.2665 23.3785 9.35293 23.2546 9.38915 23.1128Z" fill="#FF675F"/>
</svg>
