<svg width="81" height="32" viewBox="0 0 81 32" fill="none" xmlns="http://www.w3.org/2000/svg">
<path d="M40.897 20.0135H38.4033V26.8615H33.5632V6.09072C33.5632 5.63721 33.9373 5.26306 34.3907 5.26306H40.897C45.2497 5.26306 48.5029 8.48299 48.5029 12.6553C48.5029 16.8276 45.2497 20.0135 40.897 20.0135ZM40.8404 9.82084H38.4033V15.4784H40.8404C42.5746 15.4784 43.8215 14.2312 43.8215 12.6439C43.8215 11.0567 42.5746 9.8095 40.8404 9.8095" fill="#0000C8"/>
<path d="M48.6504 19.2425C48.6504 14.7754 52.2663 11.306 56.653 11.306C61.0397 11.306 64.6556 14.7754 64.6556 19.2425C64.6556 23.7095 61.0397 27.1789 56.653 27.1789C52.2663 27.1789 48.6504 23.7095 48.6504 19.2425ZM60.0308 19.2425C60.0308 17.0883 58.5686 15.5917 56.653 15.5917C54.7373 15.5917 53.2751 17.0883 53.2751 19.2425C53.2751 21.3966 54.7373 22.8932 56.653 22.8932C58.5686 22.8932 60.0308 21.408 60.0308 19.2425Z" fill="#0000C8"/>
<path d="M74.6528 7.32647C74.6528 5.73919 75.9564 4.46936 77.5093 4.46936C79.0622 4.46936 80.3997 5.75052 80.3997 7.32647C80.3997 8.90242 79.1189 10.1836 77.5093 10.1836C75.8997 10.1836 74.6528 8.90242 74.6528 7.32647ZM75.8317 11.6462H79.2095C79.5383 11.6462 79.8103 11.9183 79.8103 12.2471V26.8501H75.2196V12.2471C75.2196 11.9183 75.4916 11.6462 75.8203 11.6462" fill="#0000C8"/>
<path d="M67.172 6.82767V26.8501H71.7627V6.18142C71.7627 5.64855 71.2753 5.26307 70.7539 5.37644L67.8181 6.01135C67.4327 6.09072 67.1606 6.43085 67.1606 6.81633" fill="#0000C8"/>
<path d="M27.9524 7.42848C27.9524 7.42848 27.9524 7.38313 27.9524 7.37179C27.7937 5.82986 26.6375 4.54869 25.0959 4.23124L4.28467 0.0702831C2.06299 -0.371889 0 1.32877 0 3.58499V28.4147C0 30.6822 2.07432 32.3715 4.28467 31.9294L25.0959 27.7684C26.6488 27.4623 27.7937 26.1698 27.9524 24.6279C27.9524 24.6052 27.9524 24.5825 27.9524 24.5712C27.9524 24.4691 27.9637 24.3558 27.9637 24.2537V7.74594C27.9637 7.6439 27.9637 7.53052 27.9524 7.42848ZM8.37665 21.476V10.535C8.37665 10.4783 8.37665 10.4103 8.37665 10.3536C8.47866 8.95908 9.82754 7.97269 11.2104 8.31283L17.8415 9.96814C18.8616 10.2176 19.5644 11.1359 19.5644 12.179V19.8093C19.5644 20.8524 18.8503 21.7707 17.8415 22.0202L11.2104 23.6755C9.82754 24.0156 8.49 23.0292 8.37665 21.6347C8.37665 21.578 8.37665 21.51 8.37665 21.4533V21.476Z" fill="#0000C8"/>
<path d="M27.9637 7.68922V24.3104C27.9637 24.4011 27.9637 24.4918 27.9523 24.5711C27.9523 24.5938 27.9523 24.6165 27.9523 24.6278C27.7823 25.9884 26.5128 26.9861 25.1186 26.782L11.3011 24.8092C9.69147 24.5825 8.47862 23.256 8.38794 21.646C8.48996 23.0405 9.83883 24.0269 11.2217 23.6868L17.8528 22.0315C18.8729 21.782 19.5757 20.8637 19.5757 19.8206V12.1903C19.5757 11.1472 18.8616 10.2289 17.8528 9.97944L11.2217 8.32413C9.83883 7.984 8.50129 8.97038 8.38794 10.3649C8.47862 8.7663 9.69147 7.42845 11.3011 7.2017L25.1186 5.22892C26.5128 5.02484 27.7823 6.02257 27.9523 7.3831C27.9523 7.40577 27.9523 7.42845 27.9523 7.43979C27.9523 7.53049 27.9637 7.60985 27.9637 7.70055V7.68922Z" fill="#FF675F"/>
</svg>
