<svg width="526" height="349" viewBox="0 0 526 349" fill="none" xmlns="http://www.w3.org/2000/svg">
<path d="M99.254 243.303C99.254 219.123 99.254 194.943 99.254 170.763C99.254 161.743 98.054 151.563 99.884 142.643C103.284 126.113 117.754 115.353 134.304 115.273C185.554 115.043 236.804 115.273 288.054 115.273C305.414 115.273 322.794 115.023 340.144 115.273C359.124 115.543 373.994 130.613 374.244 149.513C374.384 159.933 374.244 170.353 374.244 180.773V225.253C374.244 228.463 374.294 231.673 374.244 234.883C374.104 244.673 370.144 253.733 362.864 260.333C353.724 268.623 342.764 268.943 331.324 268.943H244.644C236.974 268.943 228.834 268.153 221.194 268.943C216.524 269.423 215.294 273.153 213.384 276.723C210.514 282.113 207.654 287.503 204.794 292.893C197.844 306.003 190.894 319.113 183.954 332.223C182.624 334.733 181.294 337.243 179.964 339.753H190.324C180.704 321.693 171.174 303.593 161.584 285.523C158.804 280.293 155.544 269.293 148.544 268.943C137.824 268.423 126.424 270.373 115.814 268.533C97.754 265.413 99.154 243.903 99.144 229.773C99.144 222.053 87.144 222.043 87.144 229.773C87.144 247.693 87.304 270.813 107.064 278.503C114.374 281.353 122.254 280.933 129.954 280.933H149.144L143.964 277.963C146.244 281.053 147.784 285.083 149.574 288.473C153.694 296.233 157.814 303.993 161.924 311.763C167.934 323.113 173.924 334.473 179.954 345.803C182.034 349.703 188.244 349.713 190.314 345.803C196.314 334.473 202.314 323.153 208.314 311.823C212.434 304.043 216.554 296.273 220.694 288.493C222.494 285.103 224.034 281.063 226.314 277.963L221.134 280.933H281.174C301.284 280.933 321.524 281.643 341.624 280.913C361.724 280.183 380.884 265.203 385.154 244.763C387.024 235.813 386.214 226.103 386.214 217.023C386.214 194.473 386.534 171.893 386.214 149.343C385.924 129.313 373.124 111.503 353.944 105.373C347.044 103.163 340.044 103.283 332.944 103.283H266.784C222.374 103.283 177.934 102.763 133.534 103.283C116.034 103.493 99.484 113.163 91.864 129.173C87.094 139.193 87.224 149.383 87.224 160.103C87.224 185.813 87.224 211.523 87.224 237.243V243.313C87.224 251.033 99.224 251.043 99.224 243.313L99.254 243.303Z" fill="url(#paint0_linear_4374_55195)"/>
<path d="M363.174 113.593C367.214 114.503 371.254 115.403 375.304 116.313C378.844 117.103 381.794 117.073 382.794 121.053C384.774 128.933 385.244 137.213 387.304 145.083C389.144 152.103 396.324 156.293 403.274 153.573C408.564 151.503 410.164 146.933 411.114 141.903L413.874 127.213C414.334 124.733 414.414 119.213 416.824 117.703C420.014 115.703 425.654 115.563 429.264 114.743C434.544 113.533 439.764 112.323 441.944 106.593C447.324 92.4434 429.494 89.9734 420.284 87.5134C416.794 86.5834 415.154 85.8634 414.274 82.1834C413.134 77.4234 411.994 72.6634 410.844 67.9034C407.494 53.9334 390.414 53.6534 386.574 67.5234C385.164 72.6134 384.024 77.7934 382.584 82.8734C381.364 87.1634 377.734 87.2034 373.804 88.2534C369.234 89.4734 363.354 90.1234 359.374 92.8734C350.844 98.7534 354.354 110.533 363.184 113.613C370.494 116.153 373.634 104.573 366.374 102.043C366.714 102.163 365.824 102.913 366.324 102.673C366.704 102.483 367.274 102.373 367.694 102.313C369.694 102.033 371.774 101.223 373.724 100.703C376.854 99.8634 380.084 99.1734 383.164 98.1834C393.644 94.8234 394.664 84.1134 397.044 74.9434C397.444 73.4034 397.664 71.6234 398.284 70.1634C398.614 69.3934 398.314 68.7934 398.804 69.1234C399.294 69.4534 399.474 71.9134 399.604 72.4734C400.144 74.7034 400.674 76.9334 401.214 79.1734C403.334 88.0234 405.124 95.7234 415.124 98.5534C419.204 99.7034 423.314 100.743 427.414 101.833C428.604 102.153 429.784 102.493 430.984 102.783C431.234 102.843 430.624 102.083 430.864 102.063C430.394 102.103 429.934 102.383 429.464 102.383C425.564 102.343 420.834 104.363 417.014 105.233C412.514 106.263 408.404 108.033 405.744 112.073C401.744 118.153 401.594 127.803 400.284 134.743C400.034 136.073 399.924 141.323 398.894 142.283C399.114 142.073 398.064 137.563 397.854 136.453C396.944 131.623 396.044 126.803 395.134 121.973C394.384 117.973 393.834 114.153 391.134 110.873C385.694 104.283 374.184 103.793 366.364 102.033C358.544 100.273 355.634 111.913 363.174 113.603V113.593Z" fill="url(#paint1_linear_4374_55195)"/>
<path d="M352.254 172.003C350.784 149.853 314.764 149.853 313.294 172.003C312.784 179.713 324.784 179.683 325.294 172.003C325.734 165.353 339.814 165.363 340.254 172.003C340.764 179.673 352.764 179.723 352.254 172.003Z" fill="url(#paint2_linear_4374_55195)"/>
<path d="M314.684 37.1835C319.414 45.4135 324.154 53.6535 328.884 61.8835C332.234 67.7135 336.094 79.0835 343.614 80.5035C351.164 81.9335 354.394 70.3735 346.804 68.9335C345.404 68.6635 342.564 61.6035 341.694 60.0835C339.894 56.9635 338.104 53.8335 336.304 50.7135C332.554 44.1835 328.794 37.6535 325.044 31.1235C321.194 24.4335 310.824 30.4635 314.684 37.1835Z" fill="url(#paint3_linear_4374_55195)"/>
<path d="M433.674 49.8334C447.114 37.7134 458.994 24.0934 469.334 9.2334C473.754 2.8834 463.364 -3.1266 458.974 3.1734C449.214 17.1834 437.864 29.9034 425.194 41.3434C419.444 46.5234 427.954 54.9934 433.684 49.8334H433.674Z" fill="url(#paint4_linear_4374_55195)"/>
<path d="M464.734 107.463C483.104 105.693 501.544 105.583 519.934 107.123C527.634 107.763 527.584 95.7634 519.934 95.1234C501.544 93.5834 483.104 93.6934 464.734 95.4634C457.114 96.1934 457.034 108.203 464.734 107.463Z" fill="url(#paint5_linear_4374_55195)"/>
<path d="M381.634 279.523C382.874 286.773 389.024 290.663 396.094 289.453C399.174 288.923 402.224 288.173 405.274 287.533C412.474 286.033 419.674 284.523 426.874 283.023C424.924 282.513 422.984 281.993 421.034 281.483C425.444 286.713 429.854 291.943 434.264 297.173C439.484 303.353 444.724 312.313 454.314 309.283C463.234 306.463 462.594 295.863 463.364 288.353C464.084 281.313 464.804 274.273 465.524 267.223C464.534 268.953 463.544 270.673 462.554 272.403C468.904 269.713 475.244 267.033 481.594 264.343C488.574 261.393 498.234 259.053 498.294 249.623C498.354 240.273 488.714 237.673 481.834 234.563C475.554 231.723 469.274 228.883 462.994 226.033C463.984 227.763 464.974 229.483 465.964 231.213C465.474 224.333 464.984 217.453 464.494 210.573C463.954 202.943 464.904 192.373 456.174 189.083C446.954 185.613 441.364 194.223 436.064 200.043C431.414 205.143 426.764 210.253 422.114 215.353C424.064 214.843 426.004 214.323 427.954 213.813C421.254 212.173 414.564 210.523 407.864 208.883C400.564 207.093 391.414 203.223 385.454 209.983C378.734 217.603 385.594 226.173 389.614 233.023C393.104 238.973 396.604 244.933 400.094 250.883V244.823C396.914 249.853 393.734 254.883 390.554 259.913C386.974 265.573 382.244 271.143 381.424 277.933C380.504 285.583 392.504 285.513 393.424 277.933C393.564 276.743 395.144 275.103 395.754 274.133C397.744 270.993 399.724 267.853 401.714 264.713C404.634 260.103 407.544 255.493 410.464 250.873C411.594 249.083 411.524 246.613 410.464 244.813C407.794 240.263 405.124 235.703 402.454 231.153C400.614 228.023 398.784 224.893 396.944 221.763C396.454 220.923 394.714 217.483 394.384 217.903C394.884 217.273 407.494 221.123 409.424 221.593C414.544 222.853 419.664 224.103 424.784 225.363C426.804 225.863 429.174 225.413 430.624 223.823C434.174 219.923 437.734 216.023 441.284 212.123C443.724 209.443 446.174 206.763 448.614 204.073C449.374 203.243 450.974 200.733 451.914 200.313C451.834 200.343 451.734 199.213 451.824 200.803C451.884 201.943 451.984 203.083 452.064 204.223C452.314 207.793 452.574 211.363 452.824 214.933C453.214 220.353 453.594 225.783 453.984 231.203C454.124 233.173 454.994 235.493 456.954 236.383C462.054 238.693 467.154 241.003 472.264 243.313C473.554 243.893 486.394 248.933 486.364 249.593C486.334 250.253 473.184 254.973 471.974 255.493C466.814 257.673 461.664 259.863 456.504 262.043C454.494 262.893 453.734 265.283 453.534 267.223C452.964 272.813 452.394 278.413 451.824 284.003L450.704 294.933C450.594 296.003 450.564 297.133 450.374 298.193C450.164 299.333 450.464 297.923 450.474 297.933C443.794 289.413 436.524 281.283 429.534 272.993C428.124 271.323 425.684 271.033 423.694 271.453C418.374 272.563 413.064 273.673 407.744 274.783C404.244 275.513 400.744 276.243 397.244 276.973C396.214 277.193 394.954 277.653 393.894 277.673C392.074 277.713 393.724 279.263 393.224 276.333C391.924 268.733 380.354 271.953 381.654 279.523H381.634Z" fill="url(#paint6_linear_4374_55195)"/>
<path d="M1.41401 157.484C4.84401 162.194 10.4641 164.234 15.5041 166.884C20.0141 169.254 24.514 171.624 29.024 173.994C28.034 172.264 27.044 170.544 26.054 168.814C26.004 174.574 25.964 180.324 25.914 186.084C25.854 193.254 24.5141 201.834 32.4941 205.464C40.4741 209.094 45.734 202.164 50.794 197.334C55.054 193.274 59.314 189.204 63.574 185.144C61.624 185.654 59.6841 186.174 57.7341 186.684C63.2641 188.484 68.794 190.284 74.324 192.074C80.774 194.174 88.8141 198.204 94.4841 192.094C100.444 185.664 95.5641 178.274 92.4741 171.944C89.8141 166.484 87.1441 161.034 84.4841 155.574V161.634C87.7841 156.954 91.0941 152.274 94.3941 147.584C98.3541 141.974 104.254 135.794 100.054 128.514C95.834 121.204 87.4241 123.604 80.7241 124.484C75.0441 125.234 69.354 125.984 63.674 126.724C65.404 127.714 67.1241 128.704 68.8541 129.694C65.4941 125.054 62.1241 120.404 58.7641 115.764C54.7341 110.204 50.524 101.824 42.304 103.414C33.734 105.064 33.2941 113.404 32.0141 120.334C30.9441 126.134 29.864 131.934 28.794 137.734L32.9841 133.544C26.9441 135.514 20.9041 137.484 14.8641 139.454C12.5241 140.214 10.104 140.874 7.80403 141.754C1.87403 144.024 -1.36595 149.874 0.834054 156.044C3.40405 163.274 15.004 160.154 12.404 152.854C12.404 152.874 9.92401 153.664 12.034 152.984C12.984 152.674 13.9441 152.364 14.8941 152.054L23.564 149.224C27.774 147.854 31.974 146.484 36.184 145.114C38.064 144.504 39.9941 142.994 40.3741 140.924C41.1841 136.574 41.984 132.214 42.794 127.864C43.344 124.874 43.904 121.874 44.454 118.884C44.564 118.304 45.5441 115.334 45.2141 114.804C45.0041 114.464 43.004 114.514 43.054 114.424C43.034 114.464 43.6041 115.184 43.6141 115.194C43.8841 116.014 44.8741 116.934 45.3741 117.634C47.0641 119.964 48.744 122.294 50.434 124.624C53.124 128.344 55.8241 132.064 58.5141 135.774C59.6541 137.354 61.534 139.034 63.694 138.744C68.084 138.164 72.4641 137.594 76.8541 137.014L85.8941 135.824C87.5141 135.614 89.7141 135.914 89.7241 134.594C89.7341 132.884 87.5041 136.654 87.2541 136.994C85.5241 139.444 83.804 141.884 82.074 144.334C79.424 148.084 76.7841 151.834 74.1341 155.584C72.8541 157.394 73.2341 159.804 74.1341 161.644C76.0841 165.634 78.0341 169.624 79.9741 173.614C81.3141 176.354 82.6541 179.104 83.9941 181.844C84.3641 182.604 84.714 183.944 85.314 184.554C85.324 184.564 85.6741 185.404 85.7341 185.414C86.0541 185.424 87.594 185.334 86.654 183.494C86.364 182.934 83.0141 182.314 82.4741 182.134C79.5841 181.194 76.694 180.254 73.814 179.314C69.524 177.914 65.234 176.524 60.944 175.124C58.894 174.454 56.6141 175.234 55.1041 176.664C51.9041 179.714 48.7041 182.764 45.5041 185.814L39.184 191.844C38.364 192.624 34.9941 194.944 36.8941 195.174C38.5841 195.384 37.8741 192.944 37.8841 191.294C37.9141 188.244 37.9341 185.184 37.9641 182.134C38.0041 177.694 38.034 173.254 38.074 168.814C38.094 166.774 36.9341 164.594 35.1041 163.634C31.0341 161.494 26.974 159.354 22.904 157.214C20.254 155.814 17.594 154.424 14.944 153.024C14.254 152.664 11.694 151.264 11.804 151.424C7.30402 145.244 -3.11596 151.224 1.44404 157.484H1.41401Z" fill="url(#paint7_linear_4374_55195)"/>
<path d="M311.034 203.073C287.574 202.303 264.114 201.533 240.654 200.763C237.264 200.653 234.854 203.613 234.654 206.763C234.284 212.473 236.294 219.263 237.964 224.633C241.124 234.763 246.444 244.593 255.284 250.823C265.514 258.033 279.514 258.363 290.644 253.083C300.244 248.533 307.054 239.483 311.244 229.953C313.174 225.563 314.754 221.043 315.834 216.373C316.324 214.233 317.284 211.263 317.034 209.073C316.144 201.493 304.124 201.403 305.034 209.073C305.134 209.923 304.934 209.893 305.114 208.803C304.964 209.743 304.804 210.673 304.614 211.603C303.974 214.713 303.114 217.773 302.064 220.773C299.524 228.023 295.454 235.403 289.164 240.053C282.034 245.333 271.534 246.453 263.724 242.003C256.614 237.943 252.424 230.193 249.914 222.663C248.664 218.893 247.784 215.033 247.084 211.133C246.884 209.993 246.874 209.783 246.914 210.093C246.844 209.563 246.834 209.003 246.734 208.473C246.634 207.943 246.594 207.313 246.634 206.783L240.634 212.783C264.094 213.553 287.554 214.323 311.014 215.093C318.734 215.343 318.724 203.343 311.014 203.093L311.034 203.073Z" fill="url(#paint8_linear_4374_55195)"/>
<path d="M244.254 172.003C242.784 149.853 206.764 149.853 205.294 172.003C204.784 179.713 216.784 179.683 217.294 172.003C217.734 165.353 231.814 165.363 232.254 172.003C232.764 179.673 244.764 179.723 244.254 172.003Z" fill="url(#paint9_linear_4374_55195)"/>
<defs>
<linearGradient id="paint0_linear_4374_55195" x1="360.264" y1="92.9594" x2="137.517" y2="326.631" gradientUnits="userSpaceOnUse">
<stop offset="0.0240385" stop-color="#FFC800"/>
<stop offset="0.495192" stop-color="white"/>
<stop offset="0.966346" stop-color="#DE9400"/>
</linearGradient>
<linearGradient id="paint1_linear_4374_55195" x1="435.214" y1="53.2814" x2="349.584" y2="120.434" gradientUnits="userSpaceOnUse">
<stop offset="0.0240385" stop-color="#FFC800"/>
<stop offset="0.495192" stop-color="white"/>
<stop offset="0.966346" stop-color="#DE9400"/>
</linearGradient>
<linearGradient id="paint2_linear_4374_55195" x1="348.866" y1="154.471" x2="330.113" y2="182.607" gradientUnits="userSpaceOnUse">
<stop offset="0.0240385" stop-color="#FFC800"/>
<stop offset="0.495192" stop-color="white"/>
<stop offset="0.966346" stop-color="#DE9400"/>
</linearGradient>
<linearGradient id="paint3_linear_4374_55195" x1="347.879" y1="26.0572" x2="305.485" y2="52.0379" gradientUnits="userSpaceOnUse">
<stop offset="0.0240385" stop-color="#FFC800"/>
<stop offset="0.495192" stop-color="white"/>
<stop offset="0.966346" stop-color="#DE9400"/>
</linearGradient>
<linearGradient id="paint4_linear_4374_55195" x1="466.293" y1="-1.58862" x2="421.225" y2="34.3219" gradientUnits="userSpaceOnUse">
<stop offset="0.0240385" stop-color="#FFC800"/>
<stop offset="0.495192" stop-color="white"/>
<stop offset="0.966346" stop-color="#DE9400"/>
</linearGradient>
<linearGradient id="paint5_linear_4374_55195" x1="519.868" y1="93.4938" x2="514.448" y2="116.642" gradientUnits="userSpaceOnUse">
<stop offset="0.0240385" stop-color="#FFC800"/>
<stop offset="0.495192" stop-color="white"/>
<stop offset="0.966346" stop-color="#DE9400"/>
</linearGradient>
<linearGradient id="paint6_linear_4374_55195" x1="488.087" y1="183.289" x2="379.64" y2="273.091" gradientUnits="userSpaceOnUse">
<stop offset="0.0240385" stop-color="#FFC800"/>
<stop offset="0.495192" stop-color="white"/>
<stop offset="0.966346" stop-color="#DE9400"/>
</linearGradient>
<linearGradient id="paint7_linear_4374_55195" x1="92.6509" y1="98.9742" x2="0.228572" y2="177.108" gradientUnits="userSpaceOnUse">
<stop offset="0.0240385" stop-color="#FFC800"/>
<stop offset="0.495192" stop-color="white"/>
<stop offset="0.966346" stop-color="#DE9400"/>
</linearGradient>
<linearGradient id="paint8_linear_4374_55195" x1="309.875" y1="198.463" x2="260.526" y2="261.134" gradientUnits="userSpaceOnUse">
<stop offset="0.0240385" stop-color="#FFC800"/>
<stop offset="0.495192" stop-color="white"/>
<stop offset="0.966346" stop-color="#DE9400"/>
</linearGradient>
<linearGradient id="paint9_linear_4374_55195" x1="240.866" y1="154.471" x2="222.113" y2="182.607" gradientUnits="userSpaceOnUse">
<stop offset="0.0240385" stop-color="#FFC800"/>
<stop offset="0.495192" stop-color="white"/>
<stop offset="0.966346" stop-color="#DE9400"/>
</linearGradient>
</defs>
</svg>
