<svg width="32" height="32" viewBox="0 0 32 32" fill="none" xmlns="http://www.w3.org/2000/svg">
<path fill-rule="evenodd" clip-rule="evenodd" d="M17.1142 14.4076C17.799 13.7072 18.1821 12.7662 18.1813 11.7867C18.1772 10.8135 17.7945 9.88023 17.1142 9.18446C16.4168 8.49275 15.4755 8.10279 14.4933 8.09865C14.0091 8.09703 13.5294 8.19225 13.0825 8.37872C12.6356 8.56519 12.2306 8.83914 11.8911 9.18446C11.2107 9.8835 10.83 10.8205 10.83 11.796C10.83 12.7715 11.2107 13.7085 11.8911 14.4076C12.2306 14.7529 12.6356 15.0268 13.0825 15.2133C13.5294 15.3998 14.0091 15.495 14.4933 15.4934C15.4755 15.4892 16.4168 15.0993 17.1142 14.4076ZM10.749 16.71H18.2372C18.8794 16.715 19.4937 16.9735 19.946 17.4294C20.3984 17.8853 20.6522 18.5015 20.6522 19.1437V22.8047C20.6522 23.5227 20.0702 24.1048 19.3522 24.1048H9.63398C8.91601 24.1048 8.33398 23.5227 8.33398 22.8047V19.1437C8.33924 18.4992 8.59425 17.8818 9.04537 17.4214C9.49776 16.9697 10.1097 16.7142 10.749 16.71Z" fill="#0000C8"/>
</svg>
