<svg width="82" height="32" viewBox="0 0 82 32" fill="none" xmlns="http://www.w3.org/2000/svg">
<path d="M41.7102 20.013H39.1807V26.8554H34.2761V6.09185C34.2761 5.63442 34.6531 5.26276 35.118 5.26276H41.7112C46.1218 5.26276 49.4228 8.48669 49.4228 12.6531C49.4218 16.8195 46.1208 20.013 41.7102 20.013ZM41.6484 9.82467H39.1807V15.4816H41.6484C43.4066 15.4816 44.6719 14.2351 44.6719 12.6531C44.6719 11.0416 43.4066 9.82467 41.6484 9.82467Z" fill="#0000C8"/>
<path d="M49.5737 19.2525C49.5737 14.7821 53.2439 11.3142 57.6864 11.3142C62.1289 11.3142 65.7991 14.7811 65.7991 19.2525C65.7991 23.723 62.1279 27.1899 57.6864 27.1899C53.2449 27.1899 49.5737 23.723 49.5737 19.2525ZM61.1111 19.2525C61.1111 17.0931 59.6302 15.6026 57.6864 15.6026C55.7435 15.6026 54.2627 17.0931 54.2627 19.2525C54.2627 21.412 55.7435 22.9015 57.6864 22.9015C59.6302 22.9024 61.1111 21.412 61.1111 19.2525Z" fill="#0000C8"/>
<path d="M75.9463 7.33077C75.9463 5.74977 77.2725 4.47278 78.8461 4.47278C80.4806 4.47278 81.7768 5.74977 81.7768 7.33077C81.7768 8.91271 80.4806 10.1897 78.8461 10.1897C77.2725 10.1897 75.9463 8.91271 75.9463 7.33077ZM77.1468 11.6497H80.5763C80.9156 11.6497 81.1911 11.9213 81.1911 12.2558V26.8564H76.533V12.2558C76.532 11.9213 76.8066 11.6497 77.1468 11.6497Z" fill="#0000C8"/>
<path d="M68.3586 6.83904V26.8564H73.0167V6.19864C73.0167 5.66974 72.5208 5.27616 71.996 5.38861L69.0198 6.02901C68.6341 6.11097 68.3586 6.44927 68.3586 6.83904Z" fill="#0000C8"/>
<path d="M28.5858 7.43176C28.5839 7.41079 28.582 7.39173 28.5791 7.37077C28.4147 5.82599 27.249 4.54327 25.6764 4.2326L4.57161 0.0709391C2.32137 -0.37315 0.220947 1.32411 0.220947 3.58744V28.4126C0.220947 30.6759 2.32137 32.3731 4.57161 31.9291L25.6764 27.7674C27.249 27.4567 28.4138 26.174 28.5791 24.6292C28.582 24.6083 28.5849 24.5892 28.5858 24.5682C28.5955 24.4634 28.5994 24.3576 28.5994 24.2509V7.7491C28.6003 7.64237 28.5955 7.53658 28.5858 7.43176ZM8.73476 21.4711V10.5299C8.73476 10.4699 8.7367 10.4098 8.74153 10.3507C8.84979 8.95938 10.2098 7.97019 11.6114 8.31612L18.3331 9.97335C19.3635 10.2268 20.0865 11.1398 20.0865 12.1871V19.8148C20.0865 20.8621 19.3635 21.7751 18.3331 22.0286L11.6114 23.6858C10.2108 24.0308 8.85075 23.0416 8.74153 21.6512C8.73766 21.5921 8.73476 21.5311 8.73476 21.4711Z" fill="#0000C8"/>
<path d="M28.6003 7.69383V24.3081C28.6003 24.3967 28.5954 24.4844 28.5867 24.5702C28.5848 24.5911 28.5829 24.6102 28.58 24.6311C28.4041 25.992 27.1233 26.985 25.7043 26.7849L11.6964 24.8113C10.0667 24.5825 8.83909 23.2531 8.74243 21.6512C8.85069 23.0425 10.2107 24.0308 11.6123 23.6858L18.334 22.0286C19.3644 21.7741 20.0874 20.8611 20.0874 19.8148V12.1871C20.0874 11.1398 19.3644 10.2268 18.334 9.97335L11.6123 8.31612C10.2117 7.97019 8.85166 8.96034 8.74243 10.3507C8.83813 8.74877 10.0657 7.41937 11.6964 7.19065L25.7043 5.21703C27.1233 5.0169 28.4031 6.00991 28.58 7.37077C28.5829 7.39173 28.5858 7.41079 28.5867 7.43176C28.5954 7.51752 28.6003 7.6052 28.6003 7.69383Z" fill="#FF675F"/>
</svg>
