<svg width="440" height="349" viewBox="0 0 440 349" fill="none" xmlns="http://www.w3.org/2000/svg">
<path d="M118.839 161.233C118.699 167.593 118.559 164.943 118.419 171.303C118.249 179.033 130.249 179.023 130.419 171.303C130.559 164.943 130.699 167.593 130.839 161.233C131.009 153.503 119.009 153.513 118.839 161.233Z" fill="url(#paint0_linear_4374_55194)"/>
<path d="M12.8386 247.803V174.523C12.8386 166.113 12.7086 157.683 12.8386 149.273C13.1286 130.163 28.3886 115.493 47.3486 115.273C97.8786 114.693 148.448 115.273 198.988 115.273C217.168 115.273 235.359 115.043 253.529 115.273C271.699 115.503 287.559 130.313 287.839 149.293C287.989 159.143 287.839 169.013 287.839 178.863V223.903C287.839 236.563 287.929 248.613 278.339 258.523C271.789 265.293 263.029 268.813 253.659 268.943C250.929 268.983 248.199 268.943 245.469 268.943H159.059C151.149 268.943 142.729 268.103 134.849 268.943C130.269 269.433 129.098 272.753 127.239 276.253C124.289 281.793 121.339 287.343 118.399 292.893C111.449 306.003 104.499 319.113 97.5586 332.223C96.2286 334.733 94.8986 337.243 93.5686 339.753H103.929C94.3086 321.693 84.7786 303.593 75.1886 285.523C72.4086 280.293 69.1485 269.293 62.1485 268.943C51.4285 268.423 40.0286 270.373 29.4186 268.533C11.3586 265.413 12.7585 243.903 12.7485 229.773C12.7485 222.053 0.748509 222.043 0.748509 229.773C0.748509 247.693 0.908554 270.813 20.6686 278.503C27.9786 281.353 35.8586 280.933 43.5586 280.933H62.7485L57.5686 277.963C59.8486 281.053 61.3886 285.083 63.1786 288.473C67.2986 296.233 71.4185 303.993 75.5285 311.763C81.5385 323.113 87.5286 334.473 93.5586 345.803C95.6386 349.703 101.849 349.713 103.919 345.803C109.919 334.473 115.919 323.153 121.919 311.823C126.039 304.043 130.159 296.273 134.299 288.493C136.099 285.103 137.639 281.063 139.919 277.963L134.738 280.933H236.519C243.189 280.933 249.969 281.293 256.629 280.833C277.289 279.403 295.359 264.023 299.029 243.413C300.599 234.573 299.839 225.103 299.839 216.173C299.839 193.443 300.639 170.573 299.819 147.853C299.069 127.173 284.109 108.593 263.669 104.323C257.599 103.053 251.489 103.263 245.329 103.263H177.029C133.659 103.263 90.2285 102.603 46.8685 103.263C26.8585 103.573 9.05856 116.363 2.92856 135.533C0.0685632 144.473 0.838597 154.283 0.838597 163.553V247.793C0.838597 255.513 12.8386 255.523 12.8386 247.793V247.803Z" fill="url(#paint1_linear_4374_55194)"/>
<path d="M276.759 113.593C280.799 114.503 284.839 115.403 288.889 116.313C292.429 117.103 295.379 117.073 296.379 121.053C298.359 128.933 298.829 137.213 300.889 145.083C302.729 152.103 309.909 156.293 316.859 153.573C322.149 151.503 323.749 146.933 324.699 141.903L327.459 127.213C327.919 124.733 327.999 119.213 330.409 117.703C333.599 115.703 339.239 115.563 342.849 114.743C348.129 113.533 353.349 112.323 355.529 106.593C360.909 92.4434 343.079 89.9734 333.869 87.5134C330.379 86.5834 328.739 85.8634 327.859 82.1834C326.719 77.4234 325.579 72.6634 324.429 67.9034C321.079 53.9334 303.999 53.6534 300.159 67.5234C298.749 72.6134 297.609 77.7934 296.169 82.8734C294.949 87.1634 291.319 87.2034 287.389 88.2534C282.819 89.4734 276.939 90.1234 272.959 92.8734C264.429 98.7534 267.939 110.533 276.769 113.613C284.079 116.153 287.219 104.573 279.959 102.043C280.299 102.163 279.409 102.913 279.909 102.673C280.289 102.483 280.859 102.373 281.279 102.313C283.279 102.033 285.359 101.223 287.309 100.703C290.439 99.8634 293.669 99.1734 296.749 98.1834C307.229 94.8234 308.249 84.1134 310.629 74.9434C311.029 73.4034 311.249 71.6234 311.869 70.1634C312.199 69.3934 311.899 68.7934 312.389 69.1234C312.879 69.4534 313.059 71.9134 313.189 72.4734C313.729 74.7034 314.259 76.9334 314.799 79.1734C316.919 88.0234 318.709 95.7234 328.709 98.5534C332.789 99.7034 336.899 100.743 340.999 101.833C342.189 102.153 343.369 102.493 344.569 102.783C344.819 102.843 344.209 102.083 344.449 102.063C343.979 102.103 343.519 102.383 343.049 102.383C339.149 102.343 334.419 104.363 330.599 105.233C326.099 106.263 321.989 108.033 319.329 112.073C315.329 118.153 315.179 127.803 313.869 134.743C313.619 136.073 313.509 141.323 312.479 142.283C312.699 142.073 311.649 137.563 311.439 136.453C310.529 131.623 309.629 126.803 308.719 121.973C307.969 117.973 307.419 114.153 304.719 110.873C299.279 104.283 287.769 103.793 279.949 102.033C272.429 100.343 269.219 111.913 276.759 113.603V113.593Z" fill="url(#paint2_linear_4374_55194)"/>
<path d="M262.839 172.003C261.369 149.853 225.349 149.853 223.879 172.003C223.369 179.713 235.369 179.683 235.879 172.003C236.319 165.353 250.399 165.363 250.839 172.003C251.349 179.673 263.349 179.723 262.839 172.003Z" fill="url(#paint3_linear_4374_55194)"/>
<path d="M228.269 37.1835C232.999 45.4135 237.739 53.6535 242.469 61.8835C245.819 67.7135 249.679 79.0835 257.199 80.5035C264.749 81.9335 267.979 70.3735 260.389 68.9335C258.989 68.6635 256.149 61.6035 255.279 60.0835C253.479 56.9635 251.689 53.8335 249.889 50.7135C246.139 44.1835 242.379 37.6535 238.629 31.1235C234.779 24.4335 224.409 30.4635 228.269 37.1835Z" fill="url(#paint4_linear_4374_55194)"/>
<path d="M347.259 49.8334C360.699 37.7134 372.579 24.0934 382.919 9.2334C387.339 2.8834 376.949 -3.1266 372.559 3.1734C362.799 17.1834 351.449 29.9034 338.779 41.3434C333.029 46.5234 341.539 54.9934 347.269 49.8334H347.259Z" fill="url(#paint5_linear_4374_55194)"/>
<path d="M433.519 95.1234C415.129 93.5834 396.689 93.6934 378.319 95.4634C370.699 96.1934 370.619 108.203 378.319 107.463C396.689 105.693 415.129 105.583 433.519 107.123C441.219 107.763 441.169 95.7634 433.519 95.1234Z" fill="url(#paint6_linear_4374_55194)"/>
<path d="M224.618 203.073C201.158 202.303 177.698 201.533 154.238 200.763C150.848 200.653 148.438 203.613 148.238 206.763C147.868 212.473 149.879 219.263 151.549 224.633C154.709 234.763 160.028 244.593 168.868 250.823C179.098 258.033 193.099 258.363 204.229 253.083C213.829 248.533 220.639 239.483 224.829 229.953C226.759 225.563 228.339 221.043 229.419 216.373C229.909 214.233 230.868 211.263 230.618 209.073C229.728 201.493 217.708 201.403 218.618 209.073C218.718 209.923 218.519 209.893 218.699 208.803C218.549 209.743 218.389 210.673 218.199 211.603C217.559 214.713 216.699 217.773 215.649 220.773C213.109 228.023 209.038 235.403 202.748 240.053C195.618 245.333 185.119 246.453 177.309 242.003C170.199 237.943 166.008 230.193 163.498 222.663C162.248 218.893 161.369 215.033 160.669 211.133C160.469 209.993 160.458 209.783 160.498 210.093C160.428 209.563 160.419 209.003 160.319 208.473C160.219 207.943 160.179 207.313 160.219 206.783L154.219 212.783C177.679 213.553 201.139 214.323 224.599 215.093C232.319 215.343 232.309 203.343 224.599 203.093L224.618 203.073Z" fill="url(#paint7_linear_4374_55194)"/>
<defs>
<linearGradient id="paint0_linear_4374_55194" x1="127.276" y1="149.718" x2="109.748" y2="158.989" gradientUnits="userSpaceOnUse">
<stop stop-color="#E4E8EB"/>
<stop offset="0.509615" stop-color="white"/>
<stop offset="1" stop-color="#868686"/>
</linearGradient>
<linearGradient id="paint1_linear_4374_55194" x1="214.276" y1="105.203" x2="61.072" y2="348.835" gradientUnits="userSpaceOnUse">
<stop stop-color="#E4E8EB"/>
<stop offset="0.509615" stop-color="white"/>
<stop offset="1" stop-color="#868686"/>
</linearGradient>
<linearGradient id="paint2_linear_4374_55194" x1="331.144" y1="58.1546" x2="264.945" y2="136.826" gradientUnits="userSpaceOnUse">
<stop stop-color="#E4E8EB"/>
<stop offset="0.509615" stop-color="white"/>
<stop offset="1" stop-color="#868686"/>
</linearGradient>
<linearGradient id="paint3_linear_4374_55194" x1="251.667" y1="155.594" x2="240.256" y2="181.539" gradientUnits="userSpaceOnUse">
<stop stop-color="#E4E8EB"/>
<stop offset="0.509615" stop-color="white"/>
<stop offset="1" stop-color="#868686"/>
</linearGradient>
<linearGradient id="paint4_linear_4374_55194" x1="254.018" y1="28.6867" x2="217.863" y2="62.2645" gradientUnits="userSpaceOnUse">
<stop stop-color="#E4E8EB"/>
<stop offset="0.509615" stop-color="white"/>
<stop offset="1" stop-color="#868686"/>
</linearGradient>
<linearGradient id="paint5_linear_4374_55194" x1="370.471" y1="0.966705" x2="335.857" y2="42.763" gradientUnits="userSpaceOnUse">
<stop stop-color="#E4E8EB"/>
<stop offset="0.509615" stop-color="white"/>
<stop offset="1" stop-color="#868686"/>
</linearGradient>
<linearGradient id="paint6_linear_4374_55194" x1="420.138" y1="94.1686" x2="417.33" y2="112.34" gradientUnits="userSpaceOnUse">
<stop stop-color="#E4E8EB"/>
<stop offset="0.509615" stop-color="white"/>
<stop offset="1" stop-color="#868686"/>
</linearGradient>
<linearGradient id="paint7_linear_4374_55194" x1="206.999" y1="201.269" x2="175.345" y2="262.187" gradientUnits="userSpaceOnUse">
<stop stop-color="#E4E8EB"/>
<stop offset="0.509615" stop-color="white"/>
<stop offset="1" stop-color="#868686"/>
</linearGradient>
</defs>
</svg>
