<svg width="32" height="32" viewBox="0 0 32 32" fill="none" xmlns="http://www.w3.org/2000/svg">
<g clip-path="url(#clip0_2975_138)">
<path fill-rule="evenodd" clip-rule="evenodd" d="M20.9498 8.09863C21.671 8.09863 22.265 8.65263 22.3288 9.35742L22.3341 10.3494C22.3343 10.3978 22.3477 10.4452 22.3729 10.4865L24.1588 13.4249C24.2481 13.5719 24.2966 13.7422 24.275 13.9128C24.1749 14.7026 23.7383 15.4657 23.0911 15.8176C23.0045 15.8609 22.9498 15.9495 22.9498 16.0463V20.9245C22.9498 21.0664 23.062 21.1808 23.2003 21.2126C23.8491 21.3616 24.3345 21.9438 24.3345 22.6371C24.3345 23.4006 23.746 24.0292 22.9989 24.0933L22.8729 24.0986H9.79602C8.99011 24.0986 8.33447 23.443 8.33447 22.6371C8.33447 21.9004 8.88248 21.2892 9.59226 21.1898C9.6642 21.1829 9.71912 21.1224 9.71912 21.0502V16.0594C9.71912 15.9551 9.65768 15.8616 9.56638 15.8113C8.92511 15.458 8.49339 14.6981 8.39395 13.9129C8.37234 13.7422 8.42082 13.5719 8.51016 13.4249L10.2957 10.4872C10.3211 10.4454 10.3345 10.3975 10.3345 10.3487V9.48328C10.3345 8.76215 10.8885 8.16808 11.5933 8.1043L11.7191 8.09863H20.9498ZM22.8729 22.0986H9.79602C9.49915 22.0986 9.25757 22.3402 9.25757 22.6371C9.25757 22.934 9.49915 23.1755 9.79602 23.1755H22.8729C23.1698 23.1755 23.4114 22.934 23.4114 22.6371C23.4114 22.3402 23.1698 22.0986 22.8729 22.0986ZM14.4883 17.7909H13.2576C13.0313 17.7909 12.8426 17.9546 12.8035 18.1696L12.796 18.2524V20.9089C12.796 21.0561 12.9154 21.1755 13.0627 21.1755H14.6832C14.8304 21.1755 14.9498 21.0561 14.9498 20.9089V18.2524C14.9498 17.998 14.7428 17.7909 14.4883 17.7909ZM19.4114 16.8679H18.1807C17.4171 16.8679 16.796 17.489 16.796 18.2524C16.796 19.016 17.4171 19.6371 18.1807 19.6371H19.4114C20.1749 19.6371 20.796 19.016 20.796 18.2524C20.796 17.489 20.1749 16.8679 19.4114 16.8679ZM20.3345 10.0986H12.3345C12.0796 10.0986 11.8729 10.3053 11.8729 10.5602C11.8729 10.8151 12.0796 11.0217 12.3345 11.0217H20.3345C20.5894 11.0217 20.796 10.8151 20.796 10.5602C20.796 10.3053 20.5894 10.0986 20.3345 10.0986ZM9.41534 14.0917C9.35737 14.0917 9.31488 14.1464 9.33365 14.2012C9.52484 14.7597 10.0543 15.1611 10.6776 15.1611C11.3008 15.1611 11.8303 14.7597 12.0215 14.2012C12.0402 14.1464 11.9977 14.0917 11.9398 14.0917H9.41534ZM14.4507 15.1611C13.8274 15.1611 13.298 14.7597 13.1068 14.2012C13.088 14.1464 13.1305 14.0917 13.1885 14.0917H15.7129C15.7709 14.0917 15.8134 14.1464 15.7946 14.2012C15.6034 14.7597 15.0739 15.1611 14.4507 15.1611ZM16.9616 14.0917C16.9036 14.0917 16.8611 14.1464 16.8799 14.2012C17.0711 14.7597 17.6005 15.1611 18.2238 15.1611C18.847 15.1611 19.3765 14.7597 19.5677 14.2012C19.5865 14.1464 19.544 14.0917 19.486 14.0917H16.9616ZM21.997 15.1611C21.3738 15.1611 20.8443 14.7597 20.6531 14.2012C20.6343 14.1464 20.6768 14.0917 20.7348 14.0917H23.2592C23.3172 14.0917 23.3597 14.1464 23.3409 14.2012C23.1497 14.7597 22.6202 15.1611 21.997 15.1611Z" fill="#909191"/>
</g>
<defs>
<clipPath id="clip0_2975_138">
<rect width="16" height="16" fill="white" transform="translate(8.33447 8.09863)"/>
</clipPath>
</defs>
</svg>
