<svg width="32" height="32" viewBox="0 0 32 32" fill="none" xmlns="http://www.w3.org/2000/svg">
<path fill-rule="evenodd" clip-rule="evenodd" d="M8.4542 16.7976C8.39707 16.7114 8.3592 16.6138 8.34317 16.5116C8.3272 16.4098 8.33328 16.3057 8.361 16.2064L9.48044 11.8686C9.5198 11.7086 9.61228 11.566 9.74258 11.4651C9.86398 11.3711 10.0117 11.318 10.1645 11.3128C10.1809 11.3122 10.1973 11.3108 10.2136 11.3089C10.2675 11.3024 10.3222 11.3042 10.3758 11.3141L10.3839 11.3156C10.5642 11.3647 10.7192 11.4805 10.8179 11.6392C10.9165 11.798 10.9515 11.9881 10.9157 12.1715L10.9146 12.1772L10.5372 13.6521C10.4669 13.9269 10.7819 14.1368 11.0084 13.9661L18.6206 8.23012C18.7376 8.14913 18.8756 8.10365 19.0178 8.09902C19.16 8.0944 19.3006 8.13087 19.4226 8.20409C19.5446 8.2773 19.6429 8.38415 19.7058 8.51182C19.7686 8.6395 19.7933 8.78258 19.7769 8.92394C19.7655 9.01977 19.7349 9.11261 19.6871 9.1964C19.6392 9.28018 19.575 9.35349 19.4982 9.41196L11.4468 15.5007C11.2338 15.6618 11.3217 16 11.5862 16.037L13.6336 16.3237C13.8268 16.355 14.0002 16.4606 14.1166 16.618C14.233 16.7754 14.2833 16.9721 14.2567 17.166L14.2561 17.1702C14.2221 17.3583 14.1156 17.5256 13.9596 17.6361C13.8038 17.7464 13.611 17.7914 13.4226 17.7613L8.97081 17.121C8.76406 17.0859 8.57939 16.9709 8.45653 16.801L8.4542 16.7976ZM20.2603 15.5062C20.3208 15.5953 20.3606 15.6969 20.3767 15.8034C20.3927 15.9092 20.3849 16.0171 20.3539 16.1194L19.2347 20.4762C19.1954 20.6363 19.1029 20.7788 18.9726 20.8797C18.8447 20.9787 18.6875 21.0324 18.526 21.0325C18.4642 21.0427 18.401 21.0422 18.3394 21.0308L18.3326 21.0295C18.2384 21.0052 18.15 20.9624 18.0723 20.904C17.9946 20.8455 17.9292 20.7723 17.8798 20.6886C17.8304 20.6048 17.798 20.5121 17.7844 20.4158C17.7709 20.3197 17.7764 20.2219 17.8006 20.1279L18.1684 18.6455C18.2364 18.3711 17.9218 18.1634 17.6962 18.334L10.0646 24.1047C9.94755 24.1857 9.80962 24.2312 9.66739 24.2358C9.52516 24.2404 9.38462 24.204 9.26259 24.1307C9.14057 24.0575 9.04224 23.9507 8.9794 23.823C8.91655 23.6953 8.89185 23.5523 8.90825 23.4109C8.91965 23.3151 8.95023 23.2222 8.99811 23.1384C9.04599 23.0547 9.11023 22.9813 9.187 22.9229L17.2657 16.8342C17.4792 16.6733 17.3915 16.3346 17.1267 16.2975L15.0816 16.0112C14.8883 15.9799 14.715 15.8742 14.5986 15.7168C14.4822 15.5594 14.4319 15.3628 14.4585 15.1688C14.4713 15.0727 14.5031 14.9801 14.5521 14.8964C14.6011 14.8126 14.6664 14.7394 14.7441 14.6812C14.8218 14.6229 14.9104 14.5807 15.0046 14.5571C15.0986 14.5335 15.1964 14.5289 15.2923 14.5435L19.7443 15.1838C19.9511 15.2189 20.1358 15.3339 20.2586 15.5038L20.2603 15.5062Z" fill="#909191"/>
</svg>
